HIERARCHY
ROOT Hips
{
    OFFSET 0.0 0.0 0.0
    CHANNELS 6 Xposition Yposition Zposition Zrotation Xrotation Yrotation
    JOINT LeftUpLeg
    {
        OFFSET 13.045747721196173 0.0 0.0
        CHANNELS 3 Zrotation Xrotation Yrotation
        JOINT LeftLeg
        {
            OFFSET 0.0 0.0 -57.822590631699526
            CHANNELS 3 Zrotation Xrotation Yrotation
            JOINT LeftFoot
            {
                OFFSET 0.0 0.0 -46.00107220195312
                CHANNELS 3 Zrotation Xrotation Yrotation
                JOINT LeftToeBase
                {
                    OFFSET 0.0 -11.732799791731283 0.0
                    CHANNELS 3 Zrotation Xrotation Yrotation
                    End Site
                    {
                        OFFSET 0 0 0
                    }
                }
            }
        }
    }
    JOINT RightUpLeg
    {
        OFFSET -13.045747721196173 0.0 0.0
        CHANNELS 3 Zrotation Xrotation Yrotation
        JOINT RightLeg
        {
            OFFSET 0.0 0.0 -57.822590631699526
            CHANNELS 3 Zrotation Xrotation Yrotation
            JOINT RightFoot
            {
                OFFSET 0.0 0.0 -46.00107220195312
                CHANNELS 3 Zrotation Xrotation Yrotation
                JOINT RightToeBase
                {
                    OFFSET 0.0 -11.732799791731283 0.0
                    CHANNELS 3 Zrotation Xrotation Yrotation
                    End Site
                    {
                        OFFSET 0 0 0
                    }
                }
            }
        }
    }
    JOINT Spine
    {
        OFFSET 0.0 0.0 12.143159751922212
        CHANNELS 3 Zrotation Xrotation Yrotation
        JOINT Spine1
        {
            OFFSET 0.0 0.0 11.681868342720927
            CHANNELS 3 Zrotation Xrotation Yrotation
            JOINT Spine2
            {
                OFFSET 0.0 0.0 11.681868342720925
                CHANNELS 3 Zrotation Xrotation Yrotation
                JOINT Spine3
                {
                    OFFSET 0.0 0.0 11.68186834272092
                    CHANNELS 3 Zrotation Xrotation Yrotation
                    JOINT Spine4
                    {
                        OFFSET 0.0 0.0 11.681868342720929
                        CHANNELS 3 Zrotation Xrotation Yrotation
                        JOINT RightShoulder
                        {
                            OFFSET -23.354791477931443 0.0 0.0
                            CHANNELS 3 Zrotation Xrotation Yrotation
                            JOINT RightArm
                            {
                                OFFSET -35.24876397701897 0.0 0.0
                                CHANNELS 3 Zrotation Xrotation Yrotation
                                JOINT RightForeArm
                                {
                                    OFFSET -33.474622815749335 0.0 0.0
                                    CHANNELS 3 Zrotation Xrotation Yrotation
                                    JOINT RightHand
                                    {
                                        OFFSET -11.48778968306003 0.0 0.0
                                        CHANNELS 3 Zrotation Xrotation Yrotation
                                        End Site
                                        {
                                            OFFSET 0 0 0
                                        }
                                    }
                                }
                            }
                        }
                        JOINT LeftShoulder
                        {
                            OFFSET 23.354791477931443 0.0 0.0
                            CHANNELS 3 Zrotation Xrotation Yrotation
                            JOINT LeftArm
                            {
                                OFFSET 35.24876397701897 0.0 0.0
                                CHANNELS 3 Zrotation Xrotation Yrotation
                                JOINT LeftForeArm
                                {
                                    OFFSET 33.474622815749335 0.0 0.0
                                    CHANNELS 3 Zrotation Xrotation Yrotation
                                    JOINT LeftHand
                                    {
                                        OFFSET 11.48778968306003 0.0 0.0
                                        CHANNELS 3 Zrotation Xrotation Yrotation
                                        End Site
                                        {
                                            OFFSET 0 0 0
                                        }
                                    }
                                }
                            }
                        }
                        JOINT Neck
                        {
                            OFFSET 0.0 0.0 11.681868368962505
                            CHANNELS 3 Zrotation Xrotation Yrotation
                            JOINT Head
                            {
                                OFFSET 0.0 0.0 25.664967125013916
                                CHANNELS 3 Zrotation Xrotation Yrotation
                                End Site
                                {
                                    OFFSET 0 0 0
                                }
                            }
                        }
                    }
                }
            }
        }
    }
}
MOTION
Frames: 10
Frame Time: 0.03333333333333333
48.393704938888554 -21.839191603660588 538.53515625 146.0859131536552 -74.58591201374479 141.43417785881124 -12.456003236147563 15.986403808526909 -24.03599009691166 -6.424777750819143 2.2919547886265974 35.426330875793255 3.007516796498871 3.3793393490549868e-15 55.4686981506919 0.0 0.0 -3.1805546814635168e-15 64.13183304811787 40.093173211564135 -6.475174434380842 -58.106052440747234 -18.220709932680172 -55.2229053969569 -142.82361061235454 -1.1131941385122309e-14 -53.12326346386851 3.1805546814635176e-15 0.0 0.0 0.1111364397883037 1.9386421894135117 0.4272147950696788 0.0 0.0 0.0 0.0 0.0 0.0 0.0 0.0 0.0 0.0 0.0 0.0 124.81691939958472 26.30507836383508 -171.9035198563851 115.12756631630047 -1.2443336961549975e-14 -4.1393408474750745e-15 2.8260471402660133e-15 73.84689297303478 6.827923411308936e-15 0.0 0.0 0.0 -87.8933460525411 -17.930286400372097 -109.1862871383181 -18.309102430780804 6.786106735750037e-15 -2.12800276783312e-15 180.0 31.32565811197418 180.0 0.0 0.0 0.0 -9.757105345593704 3.855605504310358e-15 -4.689415964656203e-16 0.0 0.0 -3.975693351829396e-16
48.53491208553315 -21.244757616519934 538.4419275283814 145.82907180995673 -74.77691030558859 141.23542868614388 -11.409879137218573 15.210116749354931 -23.88309304993955 -8.447044947590054 3.0855070217765252 32.01822537142662 7.264392617405752 6.7586786981099735e-15 62.27885378113909 0.0 0.0 -3.1805546814635168e-15 55.28412393212656 38.73661981899829 -0.8859140247986694 -51.71514700318901 -17.083797146973076 -50.828357459827124 -149.24992767010943 6.3611093629270335e-15 -49.36078288135659 2.3854160110976376e-15 0.0 0.0 0.0909041476889897 2.186930680389606 0.6166913738319014 0.0 0.0 0.0 0.0 0.0 0.0 0.0 0.0 0.0 0.0 0.0 0.0 125.30373390121564 21.690300839290433 -171.65608460325586 118.08311969117715 -1.963698741657565e-14 -4.3618629589235485e-15 -180.0 86.91269549503801 180.0 0.0 0.0 0.0 -88.99590930693186 -17.465069941839943 -109.79572407660812 -18.405194351208838 -1.3067124438967125e-14 1.1050051071372414e-15 -179.99999999999997 26.381673491327746 180.0 0.0 -3.1805546814635168e-15 0.0 -9.253745069589838 -1.2210183938960429e-14 -9.881721134262612e-16 3.975693351829396e-16 -6.361109362927033e-15 3.975693351829396e-16
48.80634412765503 -20.349041873216635 538.2861024856568 142.52686604802236 -74.41382301501595 138.06981679450666 -8.490610817367683 12.757929843223426 -23.91940295953499 -10.106124132668098 3.956269473052891 31.543466208393898 1.6788501279046035 4.47265502080807e-15 61.24913599617815 0.0 0.0 -3.1805546814635168e-15 47.06103776911485 36.52484420378117 3.082988146042248 -45.70800328694195 -16.639280399087216 -44.92362190186196 -159.28906387919164 -7.951386703658792e-16 -43.94712493132745 1.1927080055488188e-15 0.0 0.0 0.08926953912311399 2.409173281477528 0.7176365065261326 7.951386703658792e-16 0.0 0.0 7.951386703658792e-16 0.0 0.0 7.951386703658792e-16 0.0 0.0 7.951386703658792e-16 0.0 0.0 124.98126154153165 18.046593061012725 -170.92605017170033 121.15717064627653 -7.103100597971683e-15 -3.5440415346294756e-16 -180.0 -56.26778112550266 -180.0 -1.7890620083232284e-15 -1.0862347530357812e-32 6.957463365701443e-16 -92.65125891432055 -16.840508520504336 -110.73234816914858 -19.039570378871762 6.799533797585861e-15 -2.0847015480363274e-15 -180.0 18.184595248640015 180.0 8.827812596100317e-32 3.1805546814635176e-15 -3.1805546814635176e-15 -9.763697406828749 -5.766131330212857e-15 -1.6895422857807092e-15 0.0 -6.3611093629270335e-15 0.0
49.158574891090396 -19.231395810842514 538.082045173645 137.33055986645695 -73.54770885303215 133.0500489272985 -4.825235605217786 9.3842418352929 -23.6308195035662 -12.73301986327129 5.4986257512889445 30.493936808414027 -4.939709843504084 -1.6300342742500524e-14 59.91290690651988 0.0 0.0 -3.1805546814635168e-15 40.23562655703923 33.936302400323136 5.09810759829623 -41.21977834926568 -16.90970026481848 -39.05346731408544 -178.63792761404824 1.9033631921883233e-14 -40.41916115562433 -7.951386703658792e-16 0.0 0.0 0.10724095567329886 2.6089821244659213 0.680438850148124 0.0 0.0 0.0 0.0 0.0 0.0 0.0 0.0 0.0 0.0 0.0 0.0 124.5733269278892 15.267337070787875 -171.01785910211188 123.58177627035131 -1.5034193006183005e-15 2.8027947638576528e-15 -180.0 -83.8728570490578 180.0 0.0 0.0 -5.963540027744094e-16 -98.42127543477795 -16.266343282491217 -112.07690466235344 -20.624448959209552 -1.564589378959789e-14 -2.84678934399957e-15 180.0 7.375598085660141 -180.0 0.0 0.0 0.0 -11.240179277137186 -1.0163471769551398e-14 -1.0001351259157407e-15 0.0 0.0 0.0
49.533438706398016 -18.02645010352135 537.8765745162964 131.1607347820174 -72.06304285136193 127.12157567799265 -1.382683091185393 5.804656420472095 -22.87669298567088 -16.658360903549386 7.931357157253237 26.167040104174163 -5.246376806112148 1.5902773407317584e-14 63.26470124282549 0.0 0.0 0.0 35.2368958376192 31.439821739692366 5.111187666117854 -38.12951039052544 -17.828625867508176 -33.0033331126201 148.23711667481356 6.3611093629270335e-15 -37.61239126917399 0.0 0.0 -7.951386703658792e-16 0.143593832769376 2.833717230634082 0.4862725594260672 0.0 0.0 0.0 0.0 0.0 0.0 0.0 0.0 0.0 0.0 0.0 0.0 123.65735088405049 13.004840869038084 -171.03041709557792 125.7848542726648 -1.4223235310733462e-14 -1.3468084902711143e-16 1.1103797105942769e-15 -79.48406092910156 1.957315373171496e-15 0.0 0.0 -1.9878466759146977e-16 -106.64319019855223 -15.712495575046663 -113.82562697663626 -23.673054599560974 9.338777916568411e-15 1.9571866954967717e-15 180.0 -6.054252198341476 180.0 0.0 0.0 0.0 -13.706073018456829 -1.1128322601482134e-14 -1.7378510354910273e-15 0.0 0.0 3.975693351829396e-16
49.87491037845612 -16.46902397274971 537.6254528045655 126.39695564073372 -70.95800759585659 122.47738860426651 1.225098817184532 3.036744116181734 -21.347845821957613 -17.34847511289457 9.152407835503551 23.771219952950695 -12.09619761517036 -2.3854160110976376e-15 60.64927904441556 0.0 0.0 0.0 31.389792570391986 29.948982630627 6.00023922716002 -37.90364548780154 -18.799706091212247 -31.779506970433154 120.80601805842946 6.3611093629270335e-15 -46.32414877062211 0.0 -6.3611093629270335e-15 0.0 0.13488928219426652 2.9924223409279924 0.23116770746588458 0.0 0.0 0.0 0.0 0.0 0.0 0.0 0.0 0.0 0.0 0.0 0.0 123.08199674287265 12.731854138443419 -170.68441599488008 127.62974162118196 4.304794569847725e-15 5.661129226603735e-15 1.678748702362527e-14 -87.09694423214368 1.6506272812708943e-14 0.0 0.0 6.460501696722769e-16 -114.00388394416078 -15.889559362276923 -116.02609839736682 -28.07876411171571 -7.715668411312877e-16 3.085549009730064e-15 180.0 -20.2803641198022 180.0 6.3611093629270335e-15 -4.4139062980501586e-32 -7.951386703658792e-16 -15.809471043332634 2.5262795560726932e-14 2.7048643005655458e-15 0.0 -6.3611093629270335e-15 0.0
50.10170674324036 -14.240496030449869 537.2378316879272 123.21259880881583 -70.67098695380027 119.28819908402248 2.745047989209307 1.4000481936724838 -19.277439582872248 -14.877543133244263 8.57182794852465 27.327368285526052 -37.30707991951927 -1.5902773407317584e-15 49.62002041409391 0.0 0.0 3.1805546814635168e-15 26.914944317298993 27.31880461224197 7.3362539694837565 -35.87099414071898 -18.567635407771792 -29.26950293199364 105.51921997738147 0.0 -55.074323447889135 0.0 0.0 0.0 0.11090995090404496 2.8845803599179205 -0.0841119114512321 0.0 0.0 0.0 0.0 0.0 0.0 0.0 0.0 0.0 0.0 0.0 0.0 122.97148398908816 14.636207119410157 -170.54759028231976 128.1597861443377 -7.111485914178653e-15 8.005311571736942e-17 -4.022464589901817e-15 -81.37963767527881 -3.458621981308441e-15 -3.975693351829396e-16 -6.896728590703373e-34 1.987846675914698e-16 -120.86934504392775 -16.691696878008468 -118.39616311166542 -34.34040487019512 9.389353725967795e-16 -3.038803785680484e-15 180.0 -35.53640709151559 -180.0 0.0 0.0 -3.975693351829396e-16 -17.11343458318036 -9.32806584011666e-16 -2.1505753675429594e-15 0.0 0.0 3.975693351829396e-16
50.14351665973663 -11.992879325151444 536.8282218933106 121.87648140131257 -71.64032996861624 117.86628630214719 3.5190317490788754 0.7865123584763066 -17.493490578711846 -12.560478768383156 7.583008116151198 27.875342653349012 -51.624326405826636 3.1805546814635168e-15 45.80126419331871 0.0 0.0 0.0 22.164152164374816 24.241472639515443 9.659402739604351 -33.3450102288235 -17.30566300994504 -28.209994496867782 97.32637864695326 0.0 -62.28162310934086 0.0 0.0 0.0 0.07869659286307011 2.9159585264497783 -0.3758267076347409 -1.5902773407317588e-15 -6.361109362927035e-15 -1.5902773407317588e-15 -1.5902773407317588e-15 -6.361109362927035e-15 -1.5902773407317588e-15 -1.5902773407317588e-15 -6.361109362927035e-15 -1.5902773407317588e-15 -1.5902773407317588e-15 -6.361109362927035e-15 -1.5902773407317588e-15 123.87736535701117 16.580598584349552 -170.5593239811842 127.83684281300208 -4.315018886132101e-15 -5.65333993504908e-15 -1.0091399340209816e-14 -68.13827760844147 -1.0664036809162041e-14 0.0 0.0 5.466578358765419e-16 -125.39623076395638 -18.198704605111775 -121.17660080534307 -41.21857299119781 -1.1195341297591865e-15 2.977007123619934e-15 180.0 -46.645698869468205 180.0 0.0 0.0 -9.93923337957349e-16 -17.171128668614138 -1.7370732969410164e-14 -2.6225998804850355e-15 0.0 0.0 0.0
50.05410397052765 -9.750980159640314 536.4053117752076 122.07307138146176 -73.59024213221554 117.95713925677732 3.7330255347483967 0.8513999018650016 -16.027312558010802 -9.366124746924958 5.798618517917359 28.949171095526633 -36.92309864241003 2.5444437451708134e-14 36.776701638590986 0.0 0.0 0.0 16.708511256690166 20.408342062501053 12.31322770826368 -29.3421101071015 -15.300061759522398 -27.38382869550794 92.85053976461577 -6.3611093629270335e-15 -66.52004177427591 0.0 0.0 0.0 0.03330935637654452 2.968348719959016 -0.5091099105678505 1.5902773407317584e-15 0.0 0.0 1.5902773407317584e-15 0.0 0.0 1.5902773407317584e-15 0.0 0.0 1.5902773407317584e-15 0.0 0.0 126.42370033536447 18.8668444891675 -170.0115509604229 128.38323597043234 1.2837937376178595e-14 2.6754702980164112e-15 -9.003257550035599e-16 -64.47933642300296 -2.9180256940763e-15 7.951386703658792e-16 -4.827710013492361e-33 -6.957463365701443e-16 -129.83120028945848 -18.9258475674296 -124.59337948432757 -47.2153976255142 -1.056722069860438e-14 -1.1560497510494083e-14 -179.99999999999997 -52.571883219336144 180.0 0.0 0.0 2.782985346280577e-15 -16.596503659692416 7.417630182310942e-16 -1.2980270697150455e-15 0.0 0.0 1.987846675914698e-16
49.830829811096194 -7.454715317487717 535.9471572875976 125.02710086354749 -76.55319340298261 120.8265542537355 3.2965036813082156 1.6615778451414909 -14.738587044720365 -4.921874957880877 3.1050756594065185 31.643579653969077 -40.58020426364521 -3.1805546814635168e-15 19.42753368104582 0.0 0.0 0.0 10.385680864706169 15.56047222391057 14.759546786662774 -23.477650227468256 -12.631486386309565 -26.534282491827092 93.80914427305088 -1.2722218725854067e-14 -69.01821296272773 0.0 0.0 0.0 -0.026411212499548007 3.00555032357695 -0.4879446028977824 0.0 0.0 0.0 0.0 0.0 0.0 0.0 0.0 0.0 0.0 0.0 0.0 131.02188328998486 21.1209204853173 -169.94548046669487 129.66556855973752 -7.109820047500043e-15 1.7349150141714652e-16 1.1450484400031302e-15 -67.35287087508644 1.7184583913471303e-15 0.0 0.0 4.969616689786745e-16 -132.38577151195037 -19.144791853847796 -128.3107957524665 -54.236251956273904 3.002537715005312e-15 -1.6329231687328768e-14 180.0 -46.68221011444021 180.0 0.0 0.0 0.0 -15.137813588027003 -2.5454389181354208e-15 -1.6416853617911607e-15 0.0 0.0 1.987846675914698e-16
